<?xml version="1.0" standalone="no"?>
<!DOCTYPE svg PUBLIC "-//W3C//DTD SVG 20010904//EN"
 "http://www.w3.org/TR/2001/REC-SVG-20010904/DTD/svg10.dtd">
<svg version="1.0" xmlns="http://www.w3.org/2000/svg"
 width="512.000000pt" height="512.000000pt" viewBox="0 0 512.000000 512.000000"
 preserveAspectRatio="xMidYMid meet">

<g transform="translate(0.000000,512.000000) scale(0.100000,-0.100000)"
fill="#000000" stroke="none">
<path d="M4671 5106 c-6 -7 -32 -71 -58 -141 l-48 -128 -120 -53 c-125 -55
-153 -80 -124 -109 8 -8 61 -35 119 -60 58 -26 111 -53 119 -60 8 -8 35 -72
61 -142 42 -116 49 -128 72 -131 28 -3 25 -9 99 194 l30 82 120 52 c168 75
175 96 50 153 -43 20 -97 43 -120 53 -49 19 -50 20 -102 166 -22 61 -45 118
-51 125 -14 17 -33 17 -47 -1z"/>
<path d="M1257 4859 c-46 -24 -84 -80 -93 -137 -13 -83 46 -174 131 -202 78
-26 183 19 218 93 19 40 22 128 6 160 -17 32 -60 77 -91 93 -39 20 -126 17
-171 -7z"/>
<path d="M2425 4573 c-285 -40 -554 -257 -759 -614 l-54 -94 -184 -6 c-134 -5
-210 -12 -283 -29 -236 -52 -418 -153 -538 -297 -45 -55 -127 -201 -127 -228
0 -6 -17 -19 -37 -27 -96 -39 -171 -124 -205 -230 -23 -77 -23 -130 2 -211 40
-129 142 -221 280 -251 20 -4 35 -25 72 -98 26 -51 62 -118 79 -148 l32 -55
-38 -60 c-54 -84 -138 -265 -169 -364 -80 -256 -72 -490 24 -681 148 -294 484
-458 947 -462 l143 -2 59 -100 c278 -477 655 -692 1036 -591 247 65 483 275
667 592 l56 98 135 2 c509 7 848 188 984 523 107 266 45 629 -167 976 -22 35
-40 68 -40 73 0 5 19 40 42 77 98 162 175 359 204 524 19 111 15 271 -10 363
-55 202 -200 378 -390 474 -181 91 -321 123 -576 132 l-184 6 -41 73 -41 73
25 52 c23 45 26 65 26 152 0 89 -3 106 -28 156 -34 70 -109 142 -185 177 -47
22 -71 27 -142 27 -74 0 -93 -4 -150 -31 l-65 -30 -65 22 c-108 38 -231 51
-335 37z m228 -214 c39 -9 47 -15 41 -28 -4 -9 -9 -54 -12 -101 -5 -112 19
-178 94 -259 92 -100 229 -141 354 -107 50 14 56 13 67 -1 7 -9 11 -18 9 -20
-2 -2 -43 -10 -91 -19 -130 -22 -351 -80 -481 -125 l-114 -39 -112 39 c-133
45 -357 104 -482 125 -49 9 -90 17 -92 19 -6 5 66 116 126 197 62 82 162 180
235 230 140 96 304 128 458 89z m453 2 c62 -28 89 -73 89 -147 0 -51 -4 -66
-27 -96 -94 -124 -288 -58 -288 98 0 65 29 111 90 142 54 27 82 27 136 3z
m-1591 -718 c-63 -160 -131 -396 -161 -561 l-19 -104 -103 -91 c-113 -99 -270
-260 -347 -355 -27 -33 -53 -58 -57 -56 -5 3 -24 36 -43 74 l-34 68 41 28 c90
63 158 191 158 299 0 136 -97 282 -222 333 l-37 15 19 37 c29 57 114 145 183
188 142 89 329 139 531 141 90 1 98 -1 91 -16z m2242 6 c407 -55 642 -274 643
-600 0 -124 -54 -318 -130 -469 -63 -124 -56 -122 -123 -41 -90 110 -209 232
-331 340 l-113 100 -12 73 c-24 144 -112 458 -166 591 -6 15 1 17 73 17 44 0
116 -5 159 -11z m-1917 -14 c111 -18 390 -85 389 -94 0 -3 -48 -29 -107 -58
-130 -63 -298 -159 -433 -248 -55 -36 -102 -65 -105 -65 -8 0 4 51 42 178 39
130 104 302 113 302 3 0 49 -7 101 -15z m1473 -2 c3 -10 22 -61 42 -113 33
-86 105 -325 105 -348 0 -5 -46 21 -102 58 -131 86 -326 198 -450 258 -53 26
-97 50 -97 53 -2 13 404 104 480 108 9 1 19 -7 22 -16z m-698 -229 c219 -92
516 -258 726 -407 185 -131 176 -121 188 -207 35 -264 38 -669 6 -945 -17
-149 -2 -127 -165 -243 -210 -150 -460 -294 -691 -398 l-142 -63 -27 37 c-37
52 -85 91 -150 121 -47 22 -69 26 -151 26 -91 1 -98 3 -164 39 -142 78 -392
243 -498 328 -44 36 -61 200 -61 598 0 398 17 562 61 598 62 51 270 192 390
265 172 104 534 283 580 286 6 1 50 -15 98 -35z m-1983 -304 c46 -13 103 -76
112 -123 10 -56 -9 -110 -53 -150 -71 -64 -159 -59 -224 12 -60 67 -58 157 6
219 49 47 95 59 159 42z m653 -810 c0 -203 -3 -370 -7 -370 -10 0 -230 241
-283 310 l-47 61 75 92 c60 73 251 277 260 277 1 0 2 -166 2 -370z m2749 72
l57 -73 -41 -52 c-70 -88 -231 -265 -269 -295 l-36 -29 8 106 c5 58 6 227 4
376 l-5 270 112 -115 c61 -63 138 -148 170 -188z m-3139 -327 c77 -93 240
-258 345 -350 l96 -83 13 -78 c21 -126 68 -308 120 -461 l48 -143 -92 0 c-50
0 -134 7 -186 16 -567 96 -748 511 -467 1069 41 81 60 108 67 98 4 -4 29 -35
56 -68z m3375 -35 c250 -493 127 -889 -320 -1029 -98 -31 -231 -51 -337 -51
-87 0 -94 2 -88 18 54 130 141 438 166 587 l13 76 104 91 c114 101 271 262
348 357 57 71 52 73 114 -49z m-2578 -658 c57 -37 133 -85 169 -106 l66 -38
-34 -67 c-22 -44 -35 -87 -40 -128 -6 -60 -7 -63 -33 -63 -15 0 -41 -3 -57 -6
-29 -6 -30 -5 -66 89 -57 149 -126 387 -113 387 3 0 52 -30 108 -68z m1768 61
c0 -21 -68 -245 -107 -351 l-46 -124 -51 7 c-76 10 -322 62 -391 83 l-59 18
144 75 c156 81 326 181 430 253 65 45 80 52 80 39z m-1174 -294 c134 -64 112
-258 -33 -298 -105 -29 -219 75 -199 181 10 54 43 98 89 118 54 25 91 25 143
-1z m380 -239 c116 -40 324 -93 446 -115 l98 -17 -25 -42 c-99 -167 -252 -335
-369 -405 -102 -61 -180 -84 -286 -85 -113 -1 -199 22 -299 81 -122 72 -283
245 -373 402 l-29 50 45 6 c42 7 46 5 86 -35 23 -23 72 -56 108 -73 57 -27 78
-31 147 -31 69 0 90 4 147 31 36 17 85 50 108 73 38 38 100 148 100 178 0 15
-8 17 96 -18z"/>
<path d="M2405 3094 c-321 -52 -577 -279 -667 -591 -30 -102 -32 -313 -5 -413
77 -284 303 -510 587 -587 100 -27 311 -25 413 5 282 81 494 297 573 582 25
90 25 309 0 400 -43 160 -150 325 -278 430 -71 58 -214 131 -303 155 -60 16
-263 28 -320 19z m295 -223 c184 -57 344 -217 401 -401 126 -403 -199 -815
-620 -787 -429 29 -694 478 -511 866 78 165 241 296 420 336 85 19 224 13 310
-14z"/>
<path d="M2170 2628 c-53 -37 -74 -72 -74 -126 0 -91 65 -156 156 -156 111 0
182 122 130 224 -38 77 -142 105 -212 58z"/>
<path d="M268 4253 l-34 -98 -92 -45 c-88 -43 -109 -61 -96 -82 3 -5 46 -28
94 -50 l89 -40 27 -77 c15 -42 31 -86 36 -99 7 -22 34 -40 44 -29 3 2 22 49
42 103 l37 99 90 45 c56 28 91 52 93 63 3 14 -18 28 -91 62 l-94 44 -35 98
c-27 76 -39 99 -55 101 -17 3 -25 -11 -55 -95z"/>
<path d="M3900 4330 c-12 -12 -20 -33 -20 -55 0 -69 81 -102 128 -52 48 50 15
127 -53 127 -22 0 -43 -8 -55 -20z"/>
</g>
</svg>
