<?xml version="1.0" standalone="no"?>
<!DOCTYPE svg PUBLIC "-//W3C//DTD SVG 20010904//EN"
 "http://www.w3.org/TR/2001/REC-SVG-20010904/DTD/svg10.dtd">
<svg version="1.0" xmlns="http://www.w3.org/2000/svg"
 width="512.000000pt" height="512.000000pt" viewBox="0 0 512.000000 512.000000"
 preserveAspectRatio="xMidYMid meet">

<g transform="translate(0.000000,512.000000) scale(0.100000,-0.100000)"
fill="#000000" stroke="none">
<path d="M4536 5087 c-7 -12 -26 -60 -42 -105 l-28 -84 -93 -43 c-123 -57
-123 -67 0 -126 l92 -44 36 -100 c48 -133 62 -134 107 -10 18 50 36 96 40 103
4 7 45 30 92 51 70 31 85 42 88 62 2 21 -8 29 -90 69 l-93 45 -34 97 c-18 53
-39 99 -47 102 -8 3 -20 -5 -28 -17z"/>
<path d="M585 4845 c-34 -33 -32 -70 5 -107 36 -36 71 -33 108 9 65 72 -45
167 -113 98z"/>
<path d="M1125 4566 c-93 -29 -160 -78 -210 -151 -70 -103 -65 55 -63 -2140
l3 -1980 27 -57 c57 -122 165 -200 305 -219 51 -6 528 -9 1403 -7 l1325 3 58
23 c76 31 168 116 204 190 l28 57 0 2010 0 2010 -33 67 c-39 80 -111 148 -192
181 l-55 22 -1380 2 c-1093 1 -1388 -1 -1420 -11z m2792 -207 c29 -14 52 -35
68 -63 l25 -43 -2 -1966 -3 -1966 -21 -28 c-11 -15 -36 -38 -54 -51 l-33 -22
-1371 2 -1371 3 -32 23 c-17 12 -41 42 -52 65 l-21 44 2 1955 3 1955 29 37
c16 21 47 47 70 57 39 18 94 19 1380 19 l1340 0 43 -21z"/>
<path d="M1471 4075 c-53 -17 -116 -75 -133 -124 -18 -51 -18 -641 0 -692 14
-41 61 -93 106 -117 28 -16 117 -17 1086 -17 l1055 0 42 22 c47 25 84 71 102
122 7 22 11 138 11 341 l0 308 -28 53 c-20 39 -41 62 -77 84 l-48 30 -1036 2
c-858 2 -1044 0 -1080 -12z m2088 -116 c58 -20 61 -37 61 -353 0 -200 -4 -293
-12 -311 -26 -57 21 -55 -1082 -55 l-1014 0 -31 26 -31 26 0 312 c0 311 0 313
23 333 12 12 31 23 42 26 11 3 468 5 1016 6 706 1 1005 -2 1028 -10z"/>
<path d="M1681 3787 c-57 -33 -68 -112 -22 -158 28 -28 33 -29 125 -29 91 0
97 1 128 29 44 39 46 98 5 139 -25 25 -34 27 -120 30 -64 1 -99 -2 -116 -11z"/>
<path d="M2198 3784 c-57 -31 -66 -107 -19 -155 l29 -29 286 0 286 0 32 29
c24 22 32 37 32 63 0 43 -26 86 -60 98 -14 6 -145 10 -292 10 -216 -1 -272 -4
-294 -16z"/>
<path d="M1414 2896 c-39 -17 -71 -58 -85 -108 -6 -25 -9 -127 -7 -267 3 -248
8 -268 71 -315 27 -20 42 -21 280 -24 246 -3 253 -2 296 20 78 40 81 54 81
343 0 289 -3 303 -80 343 -42 21 -55 22 -285 22 -178 -1 -248 -4 -271 -14z
m500 -112 c14 -5 16 -36 16 -240 l0 -234 -22 -5 c-13 -3 -120 -4 -238 -3
l-215 3 -3 230 c-1 126 0 235 2 242 4 10 57 13 225 13 121 0 226 -3 235 -6z"/>
<path d="M2251 2888 c-78 -41 -81 -55 -81 -343 0 -289 3 -303 81 -343 43 -22
50 -23 296 -20 238 3 253 4 280 24 15 12 37 36 48 55 19 32 20 52 20 284 0
278 -3 291 -67 337 -32 22 -40 23 -283 26 -245 3 -251 2 -294 -20z m514 -343
l0 -240 -215 -3 c-118 -1 -225 0 -237 3 l-23 5 0 234 c0 178 3 236 13 239 6 3
113 5 237 4 l225 -2 0 -240z"/>
<path d="M3105 2896 c-41 -18 -83 -69 -90 -109 -3 -18 -5 -139 -3 -269 3 -260
4 -261 72 -312 26 -20 40 -21 291 -21 251 0 265 1 291 21 15 11 37 33 48 48
20 26 21 40 21 291 0 251 -1 265 -21 291 -51 69 -50 69 -327 71 -194 2 -259 0
-282 -11z m503 -118 c17 -17 17 -449 0 -466 -17 -17 -449 -17 -466 0 -17 17
-17 449 0 466 17 17 449 17 466 0z"/>
<path d="M1427 2036 c-94 -35 -101 -55 -105 -321 -5 -261 3 -310 53 -354 19
-17 49 -33 67 -36 18 -3 142 -5 275 -3 346 4 333 -10 333 364 0 244 -1 252
-22 284 -51 74 -52 75 -321 77 -185 2 -251 0 -280 -11z m486 -119 c16 -11 17
-35 15 -242 l-3 -230 -235 0 -235 0 -3 234 c-2 181 1 236 10 243 22 14 432 10
451 -5z"/>
<path d="M2276 2040 c-16 -5 -40 -19 -53 -32 -51 -47 -53 -60 -53 -325 0 -273
4 -294 63 -337 27 -20 41 -21 297 -21 257 0 270 1 297 21 15 12 37 36 48 55
19 32 20 52 20 284 0 233 -1 252 -20 285 -12 19 -36 43 -55 55 -32 18 -54 20
-275 22 -132 1 -253 -2 -269 -7z m482 -118 c9 -7 12 -62 10 -243 l-3 -234
-235 0 -235 0 -3 230 c-2 207 -1 231 15 242 19 15 429 19 451 5z"/>
<path d="M3117 2036 c-21 -8 -48 -22 -59 -33 -48 -42 -48 -39 -48 -751 l0
-668 23 -44 c39 -77 53 -80 348 -80 249 0 257 1 289 23 18 12 41 38 52 57 17
33 18 68 16 722 -3 675 -3 687 -24 715 -11 15 -40 38 -64 51 -42 21 -55 22
-270 22 -163 -1 -235 -5 -263 -14z m486 -118 c16 -12 17 -61 15 -673 l-3 -660
-234 -3 c-181 -2 -236 1 -243 10 -4 7 -8 306 -8 665 0 611 1 653 18 662 26 16
434 14 455 -1z"/>
<path d="M3256 1535 c-25 -25 -23 -176 2 -198 32 -29 69 -21 91 20 15 29 14
132 -2 163 -15 31 -66 39 -91 15z"/>
<path d="M3416 1158 c-11 -15 -16 -46 -16 -95 0 -60 4 -77 20 -93 25 -25 62
-26 83 -2 24 26 24 173 1 196 -23 24 -70 20 -88 -6z"/>
<path d="M1403 1164 c-18 -9 -43 -33 -55 -53 -22 -35 -23 -44 -23 -293 0 -245
1 -258 21 -285 11 -15 36 -38 54 -50 32 -22 40 -23 290 -23 251 0 258 1 291
23 65 43 69 62 69 342 0 232 -2 252 -20 283 -11 18 -34 41 -52 52 -31 19 -51
20 -288 20 -213 0 -260 -3 -287 -16z m522 -344 l0 -235 -235 0 -235 0 -3 225
c-1 123 0 230 3 237 3 11 54 13 237 11 l233 -3 0 -235z"/>
<path d="M2242 1160 c-18 -11 -41 -34 -52 -52 -19 -31 -20 -51 -20 -288 0
-237 1 -257 20 -288 11 -18 34 -41 52 -52 31 -19 47 -20 301 -18 l268 3 39 41
c49 53 53 83 48 359 -3 198 -4 212 -26 246 -40 65 -58 69 -344 69 -235 0 -255
-2 -286 -20z m523 -340 l0 -235 -235 0 -235 0 -3 225 c-1 123 0 230 3 237 3
11 54 13 237 11 l233 -3 0 -235z"/>
<path d="M257 4318 c-8 -13 -27 -60 -42 -105 l-28 -81 -89 -41 c-87 -40 -111
-62 -90 -83 6 -6 48 -27 94 -48 l83 -37 33 -94 c35 -100 55 -130 72 -113 6 6
25 53 44 105 l33 94 84 41 c46 23 90 47 97 53 22 21 -4 45 -88 81 -44 19 -85
39 -89 45 -5 5 -19 42 -31 80 -27 83 -47 125 -60 125 -5 0 -16 -10 -23 -22z"/>
<path d="M4851 4262 c-90 -45 -127 -161 -82 -250 32 -64 90 -97 166 -97 49 0
69 5 97 24 121 83 115 256 -13 321 -48 25 -122 26 -168 2z"/>
</g>
</svg>
