<?xml version="1.0" standalone="no"?>
<!DOCTYPE svg PUBLIC "-//W3C//DTD SVG 20010904//EN"
 "http://www.w3.org/TR/2001/REC-SVG-20010904/DTD/svg10.dtd">
<svg version="1.0" xmlns="http://www.w3.org/2000/svg"
 width="512.000000pt" height="512.000000pt" viewBox="0 0 512.000000 512.000000"
 preserveAspectRatio="xMidYMid meet">

<g transform="translate(0.000000,512.000000) scale(0.100000,-0.100000)"
fill="#000000" stroke="none">
<path d="M615 5107 c-96 -32 -163 -90 -204 -177 -20 -44 -25 -70 -25 -130 0
-109 23 -153 146 -276 l100 -102 -71 -108 c-400 -608 -468 -1373 -182 -2049
263 -621 832 -1105 1483 -1262 l118 -28 0 -142 0 -142 -212 -3 c-210 -3 -214
-3 -270 -31 -69 -34 -131 -94 -166 -162 -23 -44 -27 -62 -27 -145 0 -82 4
-103 26 -150 33 -69 97 -133 169 -168 l55 -27 825 0 825 0 56 28 c67 32 142
109 172 175 31 67 31 207 0 274 -30 66 -105 143 -172 175 -55 27 -60 28 -268
31 l-213 4 0 142 0 141 87 18 c215 45 510 170 707 301 55 36 105 66 111 66 6
0 51 -41 100 -91 121 -122 163 -144 280 -144 78 0 97 4 141 27 66 35 134 111
158 177 25 71 19 187 -14 251 -12 25 -65 88 -116 141 -52 52 -94 98 -94 101 0
4 25 43 56 88 31 45 83 133 115 196 55 106 59 118 59 182 0 88 -21 149 -72
207 -79 90 -203 125 -320 91 -66 -19 -148 -88 -180 -150 -11 -22 -38 -72 -60
-110 l-40 -68 -63 62 -63 62 45 83 c167 316 207 698 107 1043 -106 367 -374
688 -719 860 -301 150 -644 186 -970 102 -116 -30 -244 -81 -333 -132 l-54
-31 -59 59 c-32 32 -59 62 -59 66 0 4 49 35 110 69 168 94 223 169 223 304 0
117 -61 218 -167 273 -43 22 -64 27 -132 27 -76 0 -86 -3 -175 -47 -52 -25
-141 -78 -199 -116 l-105 -70 -101 99 c-66 65 -118 106 -150 120 -59 27 -163
34 -219 16z m225 -282 l85 -85 -82 -82 -83 -83 -80 80 c-86 85 -105 123 -90
176 12 40 28 59 65 76 58 26 92 11 185 -82z m763 74 c37 -19 57 -52 57 -94 0
-54 -18 -72 -138 -139 -616 -344 -977 -1033 -901 -1724 85 -783 657 -1408
1431 -1564 97 -19 144 -23 328 -23 283 0 427 27 675 126 362 145 698 446 887
797 50 93 81 122 127 122 54 0 101 -49 101 -105 0 -52 -113 -244 -235 -400
-72 -92 -252 -270 -340 -337 -411 -312 -917 -458 -1405 -408 -460 48 -879 248
-1205 575 -408 409 -614 956 -574 1529 47 675 454 1303 1045 1612 89 46 111
51 147 33z m852 -597 c-6 -5 -41 -33 -78 -62 -164 -131 -224 -278 -174 -426
37 -107 120 -169 276 -205 93 -21 121 -40 121 -81 0 -9 -21 -56 -46 -104 -25
-47 -62 -134 -81 -193 -31 -89 -36 -120 -37 -196 -1 -79 2 -98 28 -152 50
-109 156 -187 306 -224 35 -9 110 -14 210 -14 168 1 304 21 450 69 41 14 77
23 79 20 9 -9 -53 -148 -102 -229 -138 -227 -351 -405 -597 -501 -49 -19 -95
-34 -103 -34 -7 0 -35 25 -62 56 -125 145 -291 225 -565 274 -76 13 -132 28
-144 38 -20 19 -19 44 9 172 29 130 -1 207 -98 254 -125 62 -293 52 -482 -26
-38 -16 -77 -32 -86 -35 -12 -3 -21 12 -38 71 -26 88 -50 215 -51 267 l0 37
98 12 c359 45 543 175 545 384 1 130 -135 247 -396 339 -17 7 -17 8 3 37 146
206 427 381 701 439 94 20 333 30 314 13z m-1032 -60 l57 -57 -83 -83 -83 -82
-57 58 c-31 32 -57 61 -57 66 0 13 142 156 155 156 6 0 36 -26 68 -58z m1338
9 c409 -138 705 -474 795 -901 19 -92 25 -304 11 -402 -8 -55 -9 -56 -55 -76
-260 -110 -600 -141 -787 -71 -116 43 -183 142 -171 252 8 82 58 225 114 326
41 75 47 93 47 146 0 112 -62 173 -202 201 -101 20 -151 48 -180 99 -27 47
-30 119 -8 170 17 43 101 133 168 182 45 34 164 102 178 103 3 0 43 -13 90
-29z m-1621 -336 l54 -55 -46 -93 c-60 -118 -93 -205 -126 -337 -24 -96 -26
-122 -27 -305 0 -219 10 -287 66 -452 162 -480 578 -838 1079 -929 128 -24
364 -24 485 -1 135 26 276 74 394 134 l105 53 60 -60 c71 -70 77 -60 -84 -144
-124 -64 -273 -118 -414 -148 -147 -32 -455 -32 -603 0 -426 92 -776 329
-1010 684 -326 496 -346 1119 -51 1636 23 39 47 72 53 72 6 0 35 -25 65 -55z
m308 -236 c100 -39 203 -101 236 -140 30 -35 35 -102 12 -147 -32 -62 -121
-117 -234 -147 -69 -17 -262 -48 -268 -42 -8 8 18 163 42 246 31 107 102 261
121 261 8 0 49 -14 91 -31z m329 -1014 c17 -8 39 -25 48 -39 17 -25 16 -31 -4
-119 -26 -115 -27 -159 0 -213 30 -64 67 -81 246 -115 87 -17 192 -44 234 -60
77 -30 193 -104 237 -152 l24 -25 -24 -8 c-43 -14 -280 -7 -371 10 -284 54
-537 207 -718 434 -55 68 -136 199 -128 206 13 11 94 46 149 65 123 40 233 46
307 16z m1738 -515 l59 -59 -83 -82 -83 -82 -61 62 -62 61 80 80 c44 44 82 80
85 80 3 0 32 -27 65 -60z m665 -704 c0 -71 -50 -126 -115 -126 -40 0 -63 16
-148 98 l-77 77 82 83 83 83 88 -89 c78 -80 87 -93 87 -126z m-1610 -628 l0
-128 -195 0 -195 0 0 128 0 127 195 0 195 0 0 -127z m606 -344 c107 -51 109
-197 4 -252 l-44 -22 -761 0 c-847 0 -804 -3 -852 69 -46 69 -19 165 57 203
32 17 92 18 798 18 684 0 768 -2 798 -16z"/>
<path d="M1915 4082 c-40 -21 -101 -67 -142 -107 -66 -63 -73 -74 -73 -108 0
-49 13 -73 50 -92 51 -26 75 -19 144 43 35 32 92 73 127 91 78 41 98 65 99
114 0 29 -7 46 -29 68 -41 41 -87 39 -176 -9z"/>
<path d="M2867 3872 c-23 -25 -23 -129 -1 -160 19 -27 64 -29 87 -4 23 25 24
144 1 166 -21 22 -67 20 -87 -2z"/>
<path d="M3176 3654 c-24 -24 -22 -145 2 -167 25 -23 58 -21 82 3 25 25 28
124 4 158 -18 26 -65 30 -88 6z"/>
<path d="M2930 3385 c-18 -22 -24 -97 -11 -138 20 -59 88 -63 111 -7 15 35 9
122 -10 145 -16 19 -74 20 -90 0z"/>
<path d="M4251 4966 c-6 -7 -32 -71 -58 -141 l-48 -128 -125 -56 c-98 -44
-126 -61 -128 -78 -4 -30 8 -38 138 -97 l115 -51 50 -133 c28 -72 55 -137 61
-143 26 -24 49 9 93 133 24 68 49 129 56 137 8 7 62 35 122 62 108 48 139 72
128 101 -4 9 -60 39 -126 68 -65 29 -123 58 -127 64 -5 6 -28 65 -51 131 -24
66 -48 126 -53 133 -14 16 -33 15 -47 -2z"/>
<path d="M3105 4869 c-91 -51 -28 -180 70 -143 23 9 46 60 39 88 -12 47 -70
76 -109 55z"/>
<path d="M4611 3588 c-5 -13 -21 -59 -37 -102 l-28 -79 -93 -43 c-121 -56
-122 -70 -8 -121 44 -19 86 -41 93 -47 7 -7 28 -55 46 -107 26 -71 38 -95 53
-97 17 -3 26 13 57 101 l37 104 84 38 c134 60 135 73 5 132 -64 30 -92 48 -98
65 -5 13 -21 58 -36 101 -22 60 -32 77 -47 77 -11 0 -23 -10 -28 -22z"/>
<path d="M428 1080 c-75 -22 -128 -95 -128 -174 0 -108 75 -187 178 -187 84
-1 139 33 173 106 45 98 6 199 -96 246 -42 20 -83 23 -127 9z"/>
</g>
</svg>
