<?xml version="1.0" standalone="no"?>
<!DOCTYPE svg PUBLIC "-//W3C//DTD SVG 20010904//EN"
 "http://www.w3.org/TR/2001/REC-SVG-20010904/DTD/svg10.dtd">
<svg version="1.0" xmlns="http://www.w3.org/2000/svg"
 width="512.000000pt" height="512.000000pt" viewBox="0 0 512.000000 512.000000"
 preserveAspectRatio="xMidYMid meet">

<g transform="translate(0.000000,512.000000) scale(0.100000,-0.100000)"
fill="#000000" stroke="none">
<path d="M2032 5028 c-6 -6 -12 -15 -12 -19 0 -5 -14 -46 -31 -92 l-30 -85
-85 -38 c-133 -59 -133 -69 -2 -134 l92 -45 33 -95 c50 -141 62 -140 113 5
l33 96 93 44 c120 56 124 72 27 115 -120 53 -115 47 -155 155 -35 98 -51 118
-76 93z"/>
<path d="M3611 4959 c-52 -21 -66 -77 -30 -123 33 -43 99 -35 125 15 33 64
-29 134 -95 108z"/>
<path d="M4440 4825 c-7 -8 -33 -72 -59 -142 l-46 -128 -125 -55 c-119 -53
-125 -58 -125 -85 0 -28 7 -32 125 -86 l125 -56 47 -128 c73 -201 89 -203 156
-14 24 68 49 130 56 136 6 7 61 35 120 61 122 54 147 77 119 109 -10 11 -69
42 -130 69 l-113 49 -47 128 c-55 153 -73 178 -103 142z"/>
<path d="M767 4580 c-76 -23 -129 -97 -129 -181 0 -116 115 -208 225 -178 118
31 177 149 128 254 -41 89 -133 132 -224 105z"/>
<path d="M1265 3864 c-254 -12 -560 -43 -739 -75 -75 -13 -136 -51 -157 -97
-12 -28 -16 -30 -95 -35 -95 -5 -167 -38 -215 -96 -63 -77 -60 29 -57 -1711
l3 -1585 22 -40 c28 -53 78 -99 133 -124 44 -20 60 -21 1170 -21 l1125 0 53
25 52 24 53 -24 52 -25 1125 0 c1110 0 1126 1 1170 21 55 25 105 71 133 124
l22 40 3 1585 c3 1745 6 1634 -59 1713 -47 58 -118 89 -214 95 -78 4 -82 6
-94 34 -21 47 -82 84 -158 98 -102 17 -352 48 -508 61 -208 18 -722 15 -945
-5 -277 -25 -503 -60 -544 -84 l-34 -20 -48 23 c-55 26 -246 55 -524 80 -167
14 -594 26 -725 19z m450 -124 c239 -11 335 -19 580 -52 208 -28 205 -25 205
-178 0 -101 -2 -111 -17 -106 -84 26 -413 79 -608 97 -167 16 -582 16 -750 0
-162 -15 -441 -55 -560 -80 -49 -11 -93 -17 -97 -14 -10 5 -9 178 1 213 4 14
18 30 31 37 54 25 455 71 720 83 247 10 258 10 495 0z m2410 -16 c218 -18 461
-51 495 -67 13 -7 27 -23 31 -37 8 -29 11 -204 4 -212 -3 -2 -66 8 -141 23
-495 102 -1052 112 -1574 29 -126 -20 -270 -47 -302 -56 -16 -5 -18 5 -18 106
0 153 -3 150 205 178 466 63 851 73 1300 36z m-3785 -1671 c0 -997 3 -1420 11
-1448 15 -52 73 -109 128 -126 39 -11 63 -9 235 19 267 45 428 61 671 68 306
10 652 -19 933 -77 52 -10 105 -19 118 -19 23 0 24 -3 24 -75 0 -129 135 -115
-1130 -115 -1077 0 -1090 0 -1110 20 -20 20 -20 33 -20 1561 0 1071 3 1546 11
1560 13 25 43 38 92 38 l37 1 0 -1407z m4562 1377 c17 -21 18 -90 18 -1566 0
-1531 0 -1544 -20 -1564 -20 -20 -33 -20 -1110 -20 -1264 0 -1130 -13 -1130
114 l0 73 53 6 c28 4 102 15 162 26 503 91 1025 93 1515 5 215 -39 228 -39
280 -12 26 13 57 41 75 66 l30 44 3 1430 2 1431 52 -5 c38 -4 57 -12 70 -28z
m-3219 -40 c277 -13 499 -43 765 -100 l52 -12 0 -140 0 -140 -27 5 c-16 2 -91
16 -168 31 -528 101 -1114 98 -1681 -9 -72 -14 -138 -25 -147 -25 -15 0 -17
16 -17 134 0 74 3 137 8 139 14 10 260 56 397 76 145 20 360 40 500 44 44 2
89 4 100 5 11 1 109 -3 218 -8z m2387 -16 c160 -15 403 -53 519 -82 l66 -17 3
-137 c2 -107 0 -138 -10 -138 -7 0 -80 13 -163 29 -568 111 -1178 105 -1772
-17 l-93 -19 0 142 0 142 133 26 c452 89 875 112 1317 71z m-2165 -404 c183
-19 497 -71 578 -96 15 -5 17 -21 17 -148 l0 -142 -137 28 c-578 117 -1199
113 -1800 -10 -51 -11 -95 -17 -98 -14 -3 3 -5 67 -5 142 l0 137 103 22 c215
45 495 82 717 95 107 6 518 -3 625 -14z m2010 10 c240 -16 457 -47 678 -96
l67 -16 0 -140 0 -140 -32 4 c-18 3 -94 17 -168 31 -563 107 -1184 97 -1772
-26 l-68 -15 0 143 0 143 73 16 c191 42 538 89 742 99 141 7 340 6 480 -3z
m-2170 -410 c250 -16 463 -46 688 -96 l67 -16 0 -144 c0 -79 -2 -144 -4 -144
-2 0 -58 11 -124 25 -283 57 -565 85 -872 85 -302 0 -601 -29 -890 -85 -69
-14 -131 -25 -138 -25 -10 0 -12 32 -10 143 l3 142 50 13 c102 25 395 71 555
86 279 27 446 30 675 16z m2341 -15 c152 -16 371 -51 502 -81 l72 -16 0 -144
c0 -79 -2 -144 -5 -144 -3 0 -61 11 -128 25 -173 34 -377 62 -557 76 -195 15
-626 6 -810 -16 -150 -18 -416 -60 -470 -75 -73 -20 -70 -26 -70 135 0 80 2
145 5 145 3 0 61 11 128 25 215 43 397 66 712 89 100 8 476 -4 621 -19z
m-2280 -405 c194 -15 356 -38 531 -73 l158 -32 3 -139 3 -138 -23 6 c-60 16
-299 58 -438 77 -199 26 -659 37 -876 20 -169 -13 -443 -51 -588 -81 -54 -11
-102 -20 -107 -20 -5 0 -9 60 -9 134 0 120 2 135 18 140 40 11 285 56 382 70
91 13 236 28 375 39 97 8 454 6 571 -3z m2160 0 c220 -17 514 -62 657 -101
l37 -10 0 -134 c0 -74 -2 -135 -4 -135 -2 0 -57 11 -122 25 -162 33 -369 62
-548 76 -192 15 -655 6 -836 -16 -139 -16 -394 -58 -465 -75 -68 -16 -65 -23
-65 124 0 120 2 135 18 140 116 35 515 93 752 109 112 8 459 6 576 -3z m-1976
-414 c135 -17 374 -59 455 -80 l50 -12 3 -143 3 -143 -23 5 c-164 40 -436 80
-659 98 -185 15 -639 6 -819 -16 -138 -16 -393 -58 -465 -75 -80 -19 -76 -27
-73 132 l3 142 60 13 c201 41 451 77 675 97 109 9 670 -3 790 -18z m2150 0
c131 -17 366 -57 460 -79 l55 -12 3 -143 c1 -78 0 -142 -3 -142 -3 0 -62 11
-131 25 -165 34 -364 61 -548 76 -189 15 -634 6 -816 -16 -138 -16 -399 -58
-474 -75 -71 -16 -67 -24 -64 132 l3 142 60 13 c177 37 493 83 670 97 128 10
665 -3 785 -18z m-2324 -396 c165 -13 384 -44 549 -78 l130 -27 3 -134 3 -133
-28 5 c-15 2 -91 16 -168 31 -528 101 -1114 98 -1681 -9 -72 -14 -138 -25
-147 -25 -15 0 -17 16 -17 129 0 115 2 130 18 135 125 36 478 88 747 109 97 8
474 6 591 -3z m2159 0 c186 -15 350 -38 522 -73 l158 -32 3 -133 c2 -102 0
-132 -10 -132 -7 0 -80 13 -163 29 -568 111 -1178 105 -1773 -17 l-93 -20 3
137 3 136 168 32 c179 33 367 59 532 72 145 12 510 12 650 1z m-2070 -400
c183 -19 497 -71 578 -96 15 -5 17 -19 17 -100 0 -157 -10 -164 -192 -130
-534 101 -1072 101 -1637 0 -200 -36 -211 -29 -211 135 l0 88 103 22 c215 45
495 82 717 95 107 6 518 -3 625 -14z m2010 10 c241 -16 457 -47 679 -97 l68
-15 -4 -105 c-3 -97 -5 -107 -28 -125 -15 -12 -34 -18 -50 -15 -467 84 -540
92 -925 91 -350 0 -462 -9 -798 -65 l-188 -32 -24 23 c-23 22 -25 30 -25 126
l0 102 73 16 c191 42 538 89 742 99 141 7 340 6 480 -3z"/>
</g>
</svg>
