<?xml version="1.0" standalone="no"?>
<!DOCTYPE svg PUBLIC "-//W3C//DTD SVG 20010904//EN"
 "http://www.w3.org/TR/2001/REC-SVG-20010904/DTD/svg10.dtd">
<svg version="1.0" xmlns="http://www.w3.org/2000/svg"
 width="512.000000pt" height="512.000000pt" viewBox="0 0 512.000000 512.000000"
 preserveAspectRatio="xMidYMid meet">

<g transform="translate(0.000000,512.000000) scale(0.100000,-0.100000)"
fill="#000000" stroke="none">
<path d="M343 5108 c-4 -7 -24 -55 -43 -107 l-35 -95 -83 -36 c-46 -21 -88
-42 -94 -48 -21 -21 3 -44 92 -84 61 -28 92 -48 96 -62 4 -12 20 -58 36 -104
26 -70 33 -83 50 -80 16 2 28 25 55 98 18 52 39 100 46 106 7 6 48 28 92 47
55 25 81 42 83 55 4 24 -7 32 -103 75 l-79 36 -23 63 c-13 35 -30 82 -39 106
-16 42 -35 53 -51 30z"/>
<path d="M4726 5078 c-9 -24 -26 -72 -39 -107 l-23 -64 -80 -35 c-95 -41 -106
-49 -102 -74 2 -14 28 -30 83 -54 44 -20 85 -41 92 -47 7 -7 28 -55 46 -107
27 -73 39 -96 55 -98 17 -3 24 10 50 80 16 46 32 92 36 104 4 14 33 33 91 59
136 60 137 75 5 134 l-85 39 -35 93 c-19 52 -39 100 -43 107 -16 23 -35 12
-51 -30z"/>
<path d="M2388 4960 c-50 -15 -93 -48 -117 -90 -33 -60 -27 -152 13 -205 83
-108 256 -93 315 27 39 82 23 168 -42 225 -52 46 -111 61 -169 43z"/>
<path d="M3412 4461 c-7 -4 -35 -67 -62 -140 -26 -73 -50 -135 -53 -137 -2 -2
-57 -28 -122 -57 -179 -80 -179 -94 0 -174 65 -29 120 -55 122 -57 3 -2 27
-64 53 -137 43 -117 60 -148 81 -149 17 0 40 47 79 158 24 67 48 126 54 130 6
4 63 30 126 58 113 50 115 52 115 84 0 32 -2 34 -115 84 -63 28 -120 54 -126
58 -6 4 -30 63 -54 130 -39 111 -62 158 -79 158 -3 0 -12 -4 -19 -9z"/>
<path d="M1378 4289 c-221 -32 -356 -274 -264 -474 28 -63 92 -137 139 -161
l27 -15 0 -437 c0 -284 -4 -451 -11 -476 -8 -30 -41 -71 -132 -165 -349 -361
-646 -840 -791 -1276 -61 -182 -80 -290 -80 -450 0 -252 63 -425 209 -570 210
-210 469 -265 1243 -265 367 0 586 11 742 36 387 61 600 226 682 529 32 119
32 369 0 513 -69 308 -226 650 -457 997 -121 181 -240 329 -392 486 -91 94
-124 135 -132 165 -7 25 -11 192 -11 476 l0 437 28 15 c46 24 110 98 138 161
56 123 29 273 -69 373 -55 57 -121 90 -204 102 -81 12 -584 11 -665 -1z m688
-215 c69 -33 96 -131 54 -199 -39 -63 -53 -65 -405 -65 -352 0 -366 2 -405 65
-40 65 -16 161 51 197 31 16 63 18 352 18 272 0 324 -2 353 -16z m-116 -912
c0 -569 -11 -529 205 -752 251 -262 448 -546 614 -891 74 -153 148 -360 177
-494 23 -108 24 -317 1 -402 -59 -221 -201 -330 -502 -384 -271 -48 -1175 -48
-1445 0 -304 54 -447 168 -512 409 -26 98 -28 264 -4 377 29 133 103 341 177
494 165 343 361 627 614 890 216 225 205 184 205 753 l0 438 235 0 235 0 0
-438z"/>
<path d="M1635 2506 c-17 -7 -44 -28 -59 -47 -23 -27 -27 -40 -23 -72 6 -46
30 -75 71 -85 43 -11 68 -5 110 29 75 62 51 162 -44 183 -14 3 -39 0 -55 -8z"/>
<path d="M1385 2288 c-15 -12 -63 -64 -106 -117 -69 -82 -79 -99 -79 -133 0
-50 13 -74 52 -94 56 -29 89 -14 170 82 124 146 123 143 123 186 0 80 -97 126
-160 76z"/>
<path d="M1008 1780 c-41 -25 -182 -305 -246 -492 -103 -296 -115 -493 -41
-645 70 -145 221 -223 491 -253 146 -17 904 -17 1032 -1 222 28 342 76 430
171 126 137 128 325 5 695 -54 163 -191 454 -239 505 l-28 30 -694 0 c-426 0
-699 -4 -710 -10z m1400 -202 c67 -123 135 -285 177 -423 126 -416 71 -559
-243 -628 -92 -21 -122 -22 -607 -22 -580 0 -644 6 -776 72 -119 59 -163 139
-162 293 2 181 98 480 230 718 l47 82 641 0 642 0 51 -92z"/>
<path d="M1397 1417 c-52 -16 -103 -60 -128 -109 -31 -61 -24 -152 16 -210 83
-117 257 -117 340 0 40 57 47 149 16 209 -27 53 -82 98 -137 112 -51 13 -58
13 -107 -2z m118 -142 c61 -60 -3 -166 -85 -140 -92 29 -72 165 25 165 25 0
44 -8 60 -25z"/>
<path d="M2205 1405 c-22 -21 -25 -33 -25 -98 0 -84 22 -127 65 -127 43 0 65
43 65 127 0 65 -3 77 -25 98 -13 14 -31 25 -40 25 -9 0 -27 -11 -40 -25z"/>
<path d="M1882 974 c-20 -14 -22 -23 -22 -109 0 -86 2 -95 22 -109 30 -21 54
-20 78 4 17 17 20 33 20 104 0 79 -2 86 -26 105 -32 25 -43 26 -72 5z"/>
<path d="M4434 4007 c-20 -17 -27 -33 -27 -57 0 -24 7 -40 27 -57 34 -28 65
-29 100 -2 37 29 37 89 0 118 -35 27 -66 26 -100 -2z"/>
<path d="M3559 3236 c-109 -44 -193 -140 -220 -249 -18 -74 -7 -185 25 -251
33 -67 126 -156 189 -180 l46 -17 3 -1067 c3 -1061 3 -1067 24 -1129 85 -246
334 -386 582 -328 195 46 346 215 372 415 5 43 10 508 10 1092 l0 1017 60 27
c73 32 141 102 178 182 23 49 27 70 27 147 0 118 -31 191 -116 269 -105 98
-94 96 -647 96 -476 0 -477 -1 -533 -24z m1013 -198 c66 -37 98 -113 79 -185
-12 -43 -61 -96 -104 -112 -18 -7 -179 -11 -456 -11 -423 0 -427 0 -471 23
-51 25 -90 88 -90 145 0 61 51 133 110 155 8 3 212 6 454 6 434 1 439 1 478
-21z m-194 -1570 c-3 -1014 -4 -1065 -22 -1098 -43 -83 -121 -141 -215 -161
-129 -27 -285 69 -321 200 -5 20 -10 145 -10 279 l0 242 160 0 160 0 31 28
c26 24 32 36 32 72 0 36 -6 48 -32 72 l-31 28 -160 0 -160 0 0 110 0 110 153
0 c175 0 206 10 227 74 10 31 9 42 -7 74 -25 52 -59 61 -230 61 l-143 1 0 110
0 110 159 0 c155 0 160 1 189 25 35 30 45 69 27 111 -24 59 -42 64 -217 64
l-158 0 0 275 0 275 285 0 285 0 -2 -1062z"/>
</g>
</svg>
